<svg width="140" height="41" viewBox="0 0 140 41" fill="none" xmlns="http://www.w3.org/2000/svg">
<path d="M36.0916 11.8992L33.4831 11.0073L33.42 10.987L30.4737 9.97064H30.446L31.6231 5.27502L25.4405 7.38653C25.2914 7.4378 25.1573 7.52575 25.0504 7.64243C24.9435 7.75912 24.8671 7.90085 24.8281 8.05479L23.3663 13.8786V13.9192L23.2176 14.4833V14.529L20.3267 25.9834L20.2889 25.9708L14.6434 24.0421L4.98276 20.7416L4.92227 20.7212L16.4681 16.7701L17.6728 11.9729V11.9348L18.1945 9.85121L14.8954 10.987L14.8348 11.0073L0.584725 15.8731C0.414559 15.9314 0.266715 16.0419 0.161874 16.1891C0.0570313 16.3362 0.000434814 16.5127 0 16.6939V25.366L13.1815 29.8685L14.7215 30.3945L18.8272 31.7971H18.8649V31.8352L17.9147 35.6186L23.9283 33.5656L23.9914 33.5427C24.1753 33.4826 24.3411 33.3765 24.4733 33.2343C24.6055 33.0921 24.6998 32.9184 24.7475 32.7296L25.9623 27.8866L26.3302 26.4231L28.9918 15.8249V15.7868H29.0195L34.6374 17.7051L43.2318 20.6399L43.1714 20.6603L33.0167 24.1387L31.5902 29.8202L31.2802 31.0576L33.2461 30.3868L47.5542 25.4981C47.7248 25.4405 47.8731 25.3302 47.978 25.183C48.0829 25.0357 48.1393 24.8587 48.1389 24.6774V16.0078L36.0916 11.8992ZM24.1577 14.186L24.0947 14.1631L24.1577 14.1428L24.2182 14.1631L24.1577 14.186ZM29.9117 12.2194L29.8764 12.232V12.1863L29.9092 12.1737L29.9117 12.2194Z" fill="#2945FF"/>
<path d="M74.2929 8.6391C74.2929 14.3307 71.9237 17.2782 66.2277 17.2782H60.2065V0H66.2277C71.9288 0 74.2929 2.92205 74.2929 8.6391ZM71.0163 8.6391C71.0163 4.4466 70.1595 3.30318 66.2277 3.30318H63.483V13.975H66.2277C70.1645 13.975 71.0163 12.73 71.0163 8.6391Z" fill="black"/>
<path d="M87.9581 11.9931H79.9938C80.271 13.2636 81.1027 13.975 83.4719 13.975C84.6938 13.9931 85.913 13.8566 87.1012 13.5684V16.8209C85.8333 17.1468 84.5281 17.3005 83.2199 17.2782C77.3952 17.2782 76.561 13.1365 76.561 10.7481C76.561 7.11456 78.1262 4.1925 82.31 4.1925C86.393 4.1925 87.9557 6.91129 87.9557 10.4686L87.9581 11.9931ZM79.8678 9.45219H84.6565C84.5557 8.00387 83.8247 7.49569 82.2621 7.49569C80.7499 7.49569 80.019 8.0801 79.8678 9.45219Z" fill="black"/>
<path d="M102.148 4.1925L98.1404 17.2782H93.0997L89.0923 4.1925H92.5704L95.4184 13.6701H95.8217L98.6697 4.1925H102.148Z" fill="black"/>
<path d="M108.446 13.975V17.2782H105.17V13.975H108.446Z" fill="#2945FF"/>
<path d="M79.4747 22.1517V39.43H76.1983V30.0539H75.805L71.6717 38.1341H68.0424L63.9089 30.0539H63.5057V39.43H60.2292V22.1517H63.5057L69.6554 34.1703H70.0586L76.2083 22.1517H79.4747Z" fill="black"/>
<path d="M94.9248 36.1267V39.4299H90.0101V38.1595C89.38 38.8202 88.397 39.4299 86.5068 39.4299C83.432 39.4299 81.9954 37.448 81.9954 35.1104C81.9954 32.7727 83.432 30.7908 86.5068 30.7908C88.397 30.7908 89.38 31.3752 90.0101 32.0613V29.6475H83.4572V26.3442H93.2866V36.1267H94.9248ZM90.0101 35.1104C90.0101 34.0941 89.3548 33.7891 87.6409 33.7891C85.9271 33.7891 85.2719 34.0941 85.2719 35.1104C85.2719 36.1267 85.9271 36.4317 87.6409 36.4317C89.3548 36.4317 90.0101 36.1267 90.0101 35.1104Z" fill="black"/>
<path d="M105.435 29.6475H100.596V39.4299H97.3191V26.3442H105.435V29.6475Z" fill="black"/>
<path d="M111.105 21.6434V39.4298H107.829V21.6434H111.105Z" fill="black"/>
<path d="M113.374 32.8744C113.374 29.1393 115.566 26.3442 119.649 26.3442C123.733 26.3442 125.925 29.1393 125.925 32.8744C125.925 36.6096 123.733 39.4299 119.649 39.4299C115.566 39.4299 113.374 36.6096 113.374 32.8744ZM122.648 32.8744C122.648 30.3334 121.867 29.6475 119.649 29.6475C117.432 29.6475 116.65 30.3334 116.65 32.8744C116.65 35.4153 117.432 36.1267 119.649 36.1267C121.867 36.1267 122.648 35.4153 122.648 32.8744Z" fill="black"/>
<path d="M139.913 39.4299H136.637V29.6475H131.344V39.4299H128.067V26.3442H139.913V39.4299Z" fill="black"/>
</svg>
